<svg width="351" height="282" viewBox="0 0 351 282" fill="none" xmlns="http://www.w3.org/2000/svg">
<g clip-path="url(#clip0)">
<path d="M96.9609 184.255C96.9609 226.974 123.708 272.107 173.9 272.107C224.092 272.107 253.492 227.766 253.492 184.255C253.492 170.132 251.771 156.683 248.696 144.231L230.052 150.565L215.352 138.688L198.269 150.565L176.815 138.688L152.978 150.565L132.717 138.688L116.825 150.565L101.878 144.231C98.7227 156.905 96.9609 170.413 96.9609 184.255Z" stroke="#00A63A" stroke-width="16"/>
<path fill-rule="evenodd" clip-rule="evenodd" d="M130.685 73.5612C139.329 60.0875 149.938 48.6076 160.887 40.5576C174.91 30.2467 188.154 26.4659 198.201 29.002C208.469 31.5944 218.918 41.2586 226.935 56.9628C233.108 69.055 237.422 83.9852 238.924 99.96L233.091 100.823L225.838 91.1263L222.231 86.3043L216.599 88.4362L203.895 93.2455L191.584 81.6752L188.509 78.7854L184.387 79.6913L165.416 83.8614L153.589 72.1843L149.796 68.4404L144.88 70.497L132.994 75.4696L130.685 73.5612ZM110.793 77.3424L110.194 77.03C120.665 56.9479 135.447 39.4029 151.409 27.6669C167.137 16.1029 185.361 9.25881 202.117 13.4887C218.746 17.6866 232.16 32.0078 241.185 49.6878C250.333 67.6068 255.703 90.2825 255.503 113.67L254.735 113.663L254.755 113.793L230.712 117.348L225.993 118.046L223.136 114.226L216.632 105.532L204.888 109.978L200.217 111.746L196.577 108.325L183.701 96.2241L164.606 100.421L160.361 101.355L157.268 98.3008L146.139 87.314L134.71 92.0953L130.252 93.9605L126.526 90.8816L110.53 77.6612L110.793 77.3424Z" fill="#00A63A"/>
<circle cx="135.205" cy="115.455" r="9.45487" fill="#00A63A"/>
<circle cx="164.721" cy="115.455" r="9.45487" fill="#00A63A"/>
<path d="M280.082 111.055L320.003 86.367" stroke="#00A63A" stroke-width="16"/>
<path d="M90.207 87.8195L49.2359 50" stroke="#00A63A" stroke-width="16"/>
<path d="M280.082 132.065L312.124 144.672" stroke="#00A63A" stroke-width="16"/>
<path d="M90.9727 113L50.0015 138.213" stroke="#00A63A" stroke-width="16"/>
<path d="M95.9805 89.8207L33.9985 89.8207" stroke="#00A63A" stroke-width="16"/>
</g>
<defs>
<clipPath id="clip0">
<rect width="351" height="282" fill="white"/>
</clipPath>
</defs>
</svg>
