<svg xmlns="http://www.w3.org/2000/svg" fill="none" viewBox="0 0 513 147" height="147" width="513">
<path fill="black" d="M259 19.5417C259 18.161 257.881 17.0417 256.5 17.0417C255.119 17.0417 254 18.161 254 19.5417V31.2083H247.646C243.695 31.2083 239.906 32.7777 237.113 35.5712C234.319 38.3647 232.75 42.1535 232.75 46.1042C232.75 50.0548 234.319 53.8436 237.113 56.6371C239.906 59.4306 243.695 61 247.646 61H254V80.7917H235.25C233.869 80.7917 232.75 81.911 232.75 83.2917C232.75 84.6724 233.869 85.7917 235.25 85.7917H254V97.4583C254 98.8391 255.119 99.9583 256.5 99.9583C257.881 99.9583 259 98.8391 259 97.4583V85.7917H265.354C269.305 85.7917 273.094 84.2223 275.887 81.4288C278.681 78.6353 280.25 74.8465 280.25 70.8958C280.25 66.9452 278.681 63.1564 275.887 60.3629C273.094 57.5694 269.305 56 265.354 56H259V36.2083H274.208C275.589 36.2083 276.708 35.089 276.708 33.7083C276.708 32.3276 275.589 31.2083 274.208 31.2083H259V19.5417ZM254 36.2083H247.646C245.021 36.2083 242.504 37.2509 240.648 39.1068C238.793 40.9626 237.75 43.4796 237.75 46.1042C237.75 48.7287 238.793 51.2457 240.648 53.1016C242.504 54.9574 245.021 56 247.646 56H254V36.2083ZM259 61V80.7917H265.354C267.979 80.7917 270.496 79.7491 272.352 77.8932C274.207 76.0374 275.25 73.5204 275.25 70.8958C275.25 68.2713 274.207 65.7542 272.352 63.8984C270.496 62.0426 267.979 61 265.354 61H259Z" clip-rule="evenodd" fill-rule="evenodd"></path>
<path fill="black" d="M381.804 63.3271C379.995 61.5173 377.847 60.0816 375.483 59.1022C373.119 58.1227 370.586 57.6185 368.027 57.6185C365.468 57.6185 362.934 58.1227 360.57 59.1022C358.206 60.0816 356.059 61.5173 354.25 63.3271L350.495 67.0812L346.741 63.3271C343.087 59.6732 338.132 57.6204 332.964 57.6204C327.797 57.6204 322.841 59.6732 319.187 63.3271C315.533 66.981 313.48 71.9367 313.48 77.1041C313.48 82.2716 315.533 87.2273 319.187 90.8812L322.941 94.6354L350.495 122.19L378.05 94.6354L381.804 90.8812C383.614 89.0723 385.049 86.9245 386.029 84.5606C387.008 82.1967 387.512 79.663 387.512 77.1041C387.512 74.5453 387.008 72.0116 386.029 69.6477C385.049 67.2838 383.614 65.136 381.804 63.3271Z"></path>
<path fill="black" d="M162.499 54.0833L173.442 76.2542L197.915 79.8312L180.207 97.0792L184.386 121.446L162.499 109.935L140.611 121.446L144.79 97.0792L127.082 79.8312L151.555 76.2542L162.499 54.0833Z"></path>
</svg>
